<mxfile host="app.diagrams.net" agent="Mozilla/5.0 (Windows NT 10.0; Win64; x64) AppleWebKit/537.36 (KHTML, like Gecko) Chrome/133.0.0.0 Safari/537.36 Edg/133.0.0.0" version="26.0.16">
  <diagram name="Page-1" id="oBYgZzEV_ROSUQHzdxET">
    <mxGraphModel dx="2919" dy="948" grid="1" gridSize="10" guides="1" tooltips="1" connect="1" arrows="1" fold="1" page="1" pageScale="1" pageWidth="1169" pageHeight="827" math="0" shadow="0">
      <root>
        <mxCell id="0" />
        <mxCell id="1" parent="0" />
        <mxCell id="Ijlf91uHuPHN8G6T_H1o-1" value="Home" style="rounded=0;whiteSpace=wrap;html=1;fillColor=#fff2cc;strokeColor=#d6b656;" parent="1" vertex="1">
          <mxGeometry x="440" y="120" width="120" height="40" as="geometry" />
        </mxCell>
        <mxCell id="Ijlf91uHuPHN8G6T_H1o-2" value="Sitemap" style="text;html=1;align=center;verticalAlign=middle;whiteSpace=wrap;rounded=0;fontStyle=4;fontSize=32;" parent="1" vertex="1">
          <mxGeometry x="445" y="40" width="120" height="40" as="geometry" />
        </mxCell>
        <mxCell id="Ijlf91uHuPHN8G6T_H1o-3" value="Header" style="rounded=0;whiteSpace=wrap;html=1;" parent="1" vertex="1">
          <mxGeometry x="440" y="160" width="120" height="60" as="geometry" />
        </mxCell>
        <mxCell id="Ijlf91uHuPHN8G6T_H1o-4" value="Section" style="rounded=0;whiteSpace=wrap;html=1;" parent="1" vertex="1">
          <mxGeometry x="440" y="220" width="120" height="60" as="geometry" />
        </mxCell>
        <mxCell id="Ijlf91uHuPHN8G6T_H1o-27" style="edgeStyle=orthogonalEdgeStyle;rounded=0;orthogonalLoop=1;jettySize=auto;html=1;entryX=0.5;entryY=0;entryDx=0;entryDy=0;" parent="1" source="Ijlf91uHuPHN8G6T_H1o-5" target="Ijlf91uHuPHN8G6T_H1o-7" edge="1">
          <mxGeometry relative="1" as="geometry">
            <Array as="points">
              <mxPoint x="500" y="400" />
              <mxPoint x="260" y="400" />
            </Array>
          </mxGeometry>
        </mxCell>
        <mxCell id="Ijlf91uHuPHN8G6T_H1o-28" style="edgeStyle=orthogonalEdgeStyle;rounded=0;orthogonalLoop=1;jettySize=auto;html=1;entryX=0.5;entryY=0;entryDx=0;entryDy=0;" parent="1" source="Ijlf91uHuPHN8G6T_H1o-5" target="Ijlf91uHuPHN8G6T_H1o-12" edge="1">
          <mxGeometry relative="1" as="geometry">
            <Array as="points">
              <mxPoint x="500" y="420" />
              <mxPoint x="500" y="420" />
            </Array>
          </mxGeometry>
        </mxCell>
        <mxCell id="Ijlf91uHuPHN8G6T_H1o-29" style="edgeStyle=orthogonalEdgeStyle;rounded=0;orthogonalLoop=1;jettySize=auto;html=1;entryX=0.5;entryY=0;entryDx=0;entryDy=0;" parent="1" source="Ijlf91uHuPHN8G6T_H1o-5" target="Ijlf91uHuPHN8G6T_H1o-17" edge="1">
          <mxGeometry relative="1" as="geometry">
            <Array as="points">
              <mxPoint x="500" y="400" />
              <mxPoint x="770" y="400" />
            </Array>
          </mxGeometry>
        </mxCell>
        <mxCell id="Ijlf91uHuPHN8G6T_H1o-30" style="edgeStyle=orthogonalEdgeStyle;rounded=0;orthogonalLoop=1;jettySize=auto;html=1;entryX=0.5;entryY=0;entryDx=0;entryDy=0;" parent="1" source="Ijlf91uHuPHN8G6T_H1o-5" target="Ijlf91uHuPHN8G6T_H1o-22" edge="1">
          <mxGeometry relative="1" as="geometry">
            <Array as="points">
              <mxPoint x="500" y="400" />
              <mxPoint x="1040" y="400" />
            </Array>
          </mxGeometry>
        </mxCell>
        <mxCell id="Ijlf91uHuPHN8G6T_H1o-5" value="Footer&lt;span style=&quot;background-color: transparent; color: light-dark(rgb(0, 0, 0), rgb(255, 255, 255));&quot;&gt;&amp;nbsp;&lt;/span&gt;" style="rounded=0;whiteSpace=wrap;html=1;" parent="1" vertex="1">
          <mxGeometry x="440" y="320" width="120" height="60" as="geometry" />
        </mxCell>
        <mxCell id="Ijlf91uHuPHN8G6T_H1o-6" value="..." style="rounded=0;whiteSpace=wrap;html=1;" parent="1" vertex="1">
          <mxGeometry x="440" y="280" width="120" height="40" as="geometry" />
        </mxCell>
        <mxCell id="Ijlf91uHuPHN8G6T_H1o-7" value="About" style="rounded=0;whiteSpace=wrap;html=1;fillColor=#fff2cc;strokeColor=#d6b656;" parent="1" vertex="1">
          <mxGeometry x="200" y="440" width="120" height="40" as="geometry" />
        </mxCell>
        <mxCell id="Ijlf91uHuPHN8G6T_H1o-8" value="Header" style="rounded=0;whiteSpace=wrap;html=1;" parent="1" vertex="1">
          <mxGeometry x="200" y="480" width="120" height="60" as="geometry" />
        </mxCell>
        <mxCell id="Ijlf91uHuPHN8G6T_H1o-9" value="Section" style="rounded=0;whiteSpace=wrap;html=1;" parent="1" vertex="1">
          <mxGeometry x="200" y="540" width="120" height="60" as="geometry" />
        </mxCell>
        <mxCell id="Ijlf91uHuPHN8G6T_H1o-67" style="edgeStyle=orthogonalEdgeStyle;rounded=0;orthogonalLoop=1;jettySize=auto;html=1;entryX=1;entryY=0.5;entryDx=0;entryDy=0;" parent="1" source="Ijlf91uHuPHN8G6T_H1o-10" target="Ijlf91uHuPHN8G6T_H1o-42" edge="1">
          <mxGeometry relative="1" as="geometry" />
        </mxCell>
        <mxCell id="Ijlf91uHuPHN8G6T_H1o-68" style="edgeStyle=orthogonalEdgeStyle;rounded=0;orthogonalLoop=1;jettySize=auto;html=1;entryX=1;entryY=0.5;entryDx=0;entryDy=0;" parent="1" source="Ijlf91uHuPHN8G6T_H1o-10" target="Ijlf91uHuPHN8G6T_H1o-31" edge="1">
          <mxGeometry relative="1" as="geometry" />
        </mxCell>
        <mxCell id="Ijlf91uHuPHN8G6T_H1o-10" value="Footer" style="rounded=0;whiteSpace=wrap;html=1;" parent="1" vertex="1">
          <mxGeometry x="200" y="640" width="120" height="60" as="geometry" />
        </mxCell>
        <mxCell id="Ijlf91uHuPHN8G6T_H1o-11" value="..." style="rounded=0;whiteSpace=wrap;html=1;" parent="1" vertex="1">
          <mxGeometry x="200" y="600" width="120" height="40" as="geometry" />
        </mxCell>
        <mxCell id="Ijlf91uHuPHN8G6T_H1o-12" value="Solutions" style="rounded=0;whiteSpace=wrap;html=1;fillColor=#fff2cc;strokeColor=#d6b656;" parent="1" vertex="1">
          <mxGeometry x="440" y="440" width="120" height="40" as="geometry" />
        </mxCell>
        <mxCell id="Ijlf91uHuPHN8G6T_H1o-13" value="Header" style="rounded=0;whiteSpace=wrap;html=1;" parent="1" vertex="1">
          <mxGeometry x="440" y="480" width="120" height="60" as="geometry" />
        </mxCell>
        <mxCell id="Ijlf91uHuPHN8G6T_H1o-94" style="edgeStyle=orthogonalEdgeStyle;rounded=0;orthogonalLoop=1;jettySize=auto;html=1;entryX=0.5;entryY=0;entryDx=0;entryDy=0;" parent="1" source="Ijlf91uHuPHN8G6T_H1o-14" edge="1">
          <mxGeometry relative="1" as="geometry">
            <Array as="points">
              <mxPoint x="590" y="570" />
              <mxPoint x="590" y="720" />
              <mxPoint x="480" y="720" />
            </Array>
            <mxPoint x="480" y="760" as="targetPoint" />
          </mxGeometry>
        </mxCell>
        <mxCell id="Ijlf91uHuPHN8G6T_H1o-14" value="Section" style="rounded=0;whiteSpace=wrap;html=1;" parent="1" vertex="1">
          <mxGeometry x="440" y="540" width="120" height="60" as="geometry" />
        </mxCell>
        <mxCell id="Ijlf91uHuPHN8G6T_H1o-15" value="Contact Footer" style="rounded=0;whiteSpace=wrap;html=1;" parent="1" vertex="1">
          <mxGeometry x="440" y="600" width="120" height="60" as="geometry" />
        </mxCell>
        <mxCell id="Ijlf91uHuPHN8G6T_H1o-17" value="Capabilities 能力" style="rounded=0;whiteSpace=wrap;html=1;fillColor=#fff2cc;strokeColor=#d6b656;" parent="1" vertex="1">
          <mxGeometry x="710" y="440" width="120" height="40" as="geometry" />
        </mxCell>
        <mxCell id="Ijlf91uHuPHN8G6T_H1o-18" value="Header" style="rounded=0;whiteSpace=wrap;html=1;" parent="1" vertex="1">
          <mxGeometry x="710" y="480" width="120" height="60" as="geometry" />
        </mxCell>
        <mxCell id="Ijlf91uHuPHN8G6T_H1o-95" style="edgeStyle=orthogonalEdgeStyle;rounded=0;orthogonalLoop=1;jettySize=auto;html=1;entryX=0.5;entryY=0;entryDx=0;entryDy=0;" parent="1" source="Ijlf91uHuPHN8G6T_H1o-19" edge="1">
          <mxGeometry relative="1" as="geometry">
            <Array as="points">
              <mxPoint x="870" y="570" />
              <mxPoint x="870" y="720" />
              <mxPoint x="770" y="720" />
            </Array>
            <mxPoint x="770.0000000000005" y="760" as="targetPoint" />
          </mxGeometry>
        </mxCell>
        <mxCell id="Ijlf91uHuPHN8G6T_H1o-19" value="Section" style="rounded=0;whiteSpace=wrap;html=1;" parent="1" vertex="1">
          <mxGeometry x="710" y="540" width="120" height="60" as="geometry" />
        </mxCell>
        <mxCell id="Ijlf91uHuPHN8G6T_H1o-20" value="Footer" style="rounded=0;whiteSpace=wrap;html=1;" parent="1" vertex="1">
          <mxGeometry x="710" y="600" width="120" height="60" as="geometry" />
        </mxCell>
        <mxCell id="Ijlf91uHuPHN8G6T_H1o-22" value="News" style="rounded=0;whiteSpace=wrap;html=1;fillColor=#fff2cc;strokeColor=#d6b656;" parent="1" vertex="1">
          <mxGeometry x="980" y="440" width="120" height="40" as="geometry" />
        </mxCell>
        <mxCell id="Ijlf91uHuPHN8G6T_H1o-23" value="Header" style="rounded=0;whiteSpace=wrap;html=1;" parent="1" vertex="1">
          <mxGeometry x="980" y="480" width="120" height="60" as="geometry" />
        </mxCell>
        <mxCell id="Ijlf91uHuPHN8G6T_H1o-24" value="Section" style="rounded=0;whiteSpace=wrap;html=1;" parent="1" vertex="1">
          <mxGeometry x="980" y="540" width="120" height="60" as="geometry" />
        </mxCell>
        <mxCell id="Ijlf91uHuPHN8G6T_H1o-25" value="Footer" style="rounded=0;whiteSpace=wrap;html=1;" parent="1" vertex="1">
          <mxGeometry x="980" y="600" width="120" height="60" as="geometry" />
        </mxCell>
        <mxCell id="Ijlf91uHuPHN8G6T_H1o-66" style="edgeStyle=orthogonalEdgeStyle;rounded=0;orthogonalLoop=1;jettySize=auto;html=1;entryX=1;entryY=0.5;entryDx=0;entryDy=0;" parent="1" source="Ijlf91uHuPHN8G6T_H1o-31" target="Ijlf91uHuPHN8G6T_H1o-60" edge="1">
          <mxGeometry relative="1" as="geometry" />
        </mxCell>
        <mxCell id="Ijlf91uHuPHN8G6T_H1o-31" value="Leaderships" style="rounded=0;whiteSpace=wrap;html=1;fillColor=#fff2cc;strokeColor=#d6b656;" parent="1" vertex="1">
          <mxGeometry x="120" y="1080" width="120" height="40" as="geometry" />
        </mxCell>
        <mxCell id="Ijlf91uHuPHN8G6T_H1o-32" value="Header" style="rounded=0;whiteSpace=wrap;html=1;" parent="1" vertex="1">
          <mxGeometry x="120" y="1120" width="120" height="60" as="geometry" />
        </mxCell>
        <mxCell id="Ijlf91uHuPHN8G6T_H1o-33" value="Section" style="rounded=0;whiteSpace=wrap;html=1;" parent="1" vertex="1">
          <mxGeometry x="120" y="1180" width="120" height="60" as="geometry" />
        </mxCell>
        <mxCell id="Ijlf91uHuPHN8G6T_H1o-34" value="Footer" style="rounded=0;whiteSpace=wrap;html=1;" parent="1" vertex="1">
          <mxGeometry x="120" y="1280" width="120" height="60" as="geometry" />
        </mxCell>
        <mxCell id="Ijlf91uHuPHN8G6T_H1o-35" value="..." style="rounded=0;whiteSpace=wrap;html=1;" parent="1" vertex="1">
          <mxGeometry x="120" y="1240" width="120" height="40" as="geometry" />
        </mxCell>
        <mxCell id="Ijlf91uHuPHN8G6T_H1o-37" value="" style="rounded=0;whiteSpace=wrap;html=1;" parent="1" vertex="1">
          <mxGeometry x="-260" y="580" width="230" height="120" as="geometry" />
        </mxCell>
        <mxCell id="Ijlf91uHuPHN8G6T_H1o-39" value="&lt;h1 style=&quot;margin-top: 0px;&quot;&gt;Partnerships&lt;/h1&gt;&lt;p&gt;&lt;/p&gt;&lt;ul&gt;&lt;li&gt;&lt;font style=&quot;font-size: 18px;&quot;&gt;Strategic&lt;/font&gt;&lt;/li&gt;&lt;li&gt;&lt;font style=&quot;font-size: 18px;&quot;&gt;Alliances Member&lt;/font&gt;&lt;/li&gt;&lt;/ul&gt;&lt;p&gt;&lt;/p&gt;" style="text;html=1;whiteSpace=wrap;overflow=hidden;rounded=0;" parent="1" vertex="1">
          <mxGeometry x="-245" y="590" width="200" height="100" as="geometry" />
        </mxCell>
        <mxCell id="Ijlf91uHuPHN8G6T_H1o-40" value="" style="rounded=0;whiteSpace=wrap;html=1;" parent="1" vertex="1">
          <mxGeometry x="-260" y="440" width="230" height="140" as="geometry" />
        </mxCell>
        <mxCell id="Ijlf91uHuPHN8G6T_H1o-41" value="&lt;h1 style=&quot;margin-top: 0px;&quot;&gt;Our Values&lt;/h1&gt;&lt;p&gt;&lt;/p&gt;&lt;ul&gt;&lt;li&gt;&lt;span style=&quot;font-size: 18px;&quot;&gt;value 01&lt;/span&gt;&lt;/li&gt;&lt;li&gt;&lt;span style=&quot;font-size: 18px;&quot;&gt;...&lt;/span&gt;&lt;/li&gt;&lt;/ul&gt;&lt;p&gt;&lt;/p&gt;" style="text;html=1;whiteSpace=wrap;overflow=hidden;rounded=0;" parent="1" vertex="1">
          <mxGeometry x="-245" y="450" width="200" height="120" as="geometry" />
        </mxCell>
        <mxCell id="Ijlf91uHuPHN8G6T_H1o-42" value="Overview" style="rounded=0;whiteSpace=wrap;html=1;fillColor=#fff2cc;strokeColor=#d6b656;" parent="1" vertex="1">
          <mxGeometry x="120" y="800" width="120" height="40" as="geometry" />
        </mxCell>
        <mxCell id="Ijlf91uHuPHN8G6T_H1o-43" value="Header" style="rounded=0;whiteSpace=wrap;html=1;" parent="1" vertex="1">
          <mxGeometry x="120" y="840" width="120" height="60" as="geometry" />
        </mxCell>
        <mxCell id="Ijlf91uHuPHN8G6T_H1o-44" value="Section" style="rounded=0;whiteSpace=wrap;html=1;" parent="1" vertex="1">
          <mxGeometry x="120" y="900" width="120" height="60" as="geometry" />
        </mxCell>
        <mxCell id="Ijlf91uHuPHN8G6T_H1o-45" value="Footer" style="rounded=0;whiteSpace=wrap;html=1;" parent="1" vertex="1">
          <mxGeometry x="120" y="1000" width="120" height="60" as="geometry" />
        </mxCell>
        <mxCell id="Ijlf91uHuPHN8G6T_H1o-46" value="..." style="rounded=0;whiteSpace=wrap;html=1;" parent="1" vertex="1">
          <mxGeometry x="120" y="960" width="120" height="40" as="geometry" />
        </mxCell>
        <mxCell id="Ijlf91uHuPHN8G6T_H1o-47" value="" style="rounded=0;whiteSpace=wrap;html=1;" parent="1" vertex="1">
          <mxGeometry x="-260" y="320" width="230" height="120" as="geometry" />
        </mxCell>
        <mxCell id="Ijlf91uHuPHN8G6T_H1o-48" value="&lt;h1 style=&quot;margin-top: 0px;&quot;&gt;Overview&lt;/h1&gt;&lt;p&gt;&lt;/p&gt;&lt;span style=&quot;font-size: 18px; background-color: transparent; color: light-dark(rgb(0, 0, 0), rgb(255, 255, 255));&quot;&gt;Simple Articles for about company&amp;nbsp;&lt;/span&gt;&lt;p&gt;&lt;/p&gt;" style="text;html=1;whiteSpace=wrap;overflow=hidden;rounded=0;" parent="1" vertex="1">
          <mxGeometry x="-245" y="330" width="200" height="100" as="geometry" />
        </mxCell>
        <mxCell id="Ijlf91uHuPHN8G6T_H1o-49" value="" style="endArrow=none;html=1;rounded=0;entryX=0;entryY=0;entryDx=0;entryDy=0;exitX=1;exitY=0;exitDx=0;exitDy=0;" parent="1" source="Ijlf91uHuPHN8G6T_H1o-47" target="Ijlf91uHuPHN8G6T_H1o-9" edge="1">
          <mxGeometry width="50" height="50" relative="1" as="geometry">
            <mxPoint x="490" y="690" as="sourcePoint" />
            <mxPoint x="540" y="640" as="targetPoint" />
          </mxGeometry>
        </mxCell>
        <mxCell id="Ijlf91uHuPHN8G6T_H1o-50" value="" style="endArrow=none;html=1;rounded=0;entryX=0;entryY=1;entryDx=0;entryDy=0;exitX=1;exitY=1;exitDx=0;exitDy=0;" parent="1" source="Ijlf91uHuPHN8G6T_H1o-54" target="Ijlf91uHuPHN8G6T_H1o-11" edge="1">
          <mxGeometry width="50" height="50" relative="1" as="geometry">
            <mxPoint x="490" y="690" as="sourcePoint" />
            <mxPoint x="540" y="640" as="targetPoint" />
          </mxGeometry>
        </mxCell>
        <mxCell id="Ijlf91uHuPHN8G6T_H1o-51" value="&lt;font style=&quot;font-size: 16px;&quot;&gt;article for company&lt;/font&gt;" style="rounded=0;whiteSpace=wrap;html=1;" parent="1" vertex="1">
          <mxGeometry x="-230" y="820" width="200" height="80" as="geometry" />
        </mxCell>
        <mxCell id="Ijlf91uHuPHN8G6T_H1o-52" value="vision and mission" style="rounded=0;whiteSpace=wrap;html=1;fontSize=16;" parent="1" vertex="1">
          <mxGeometry x="-230" y="900" width="200" height="80" as="geometry" />
        </mxCell>
        <mxCell id="Ijlf91uHuPHN8G6T_H1o-53" value="Milestone or Timeline" style="rounded=0;whiteSpace=wrap;html=1;fontSize=16;" parent="1" vertex="1">
          <mxGeometry x="-230" y="980" width="200" height="80" as="geometry" />
        </mxCell>
        <mxCell id="Ijlf91uHuPHN8G6T_H1o-54" value="Global Footprint" style="rounded=0;whiteSpace=wrap;html=1;fontSize=16;" parent="1" vertex="1">
          <mxGeometry x="-260" y="700" width="230" height="80" as="geometry" />
        </mxCell>
        <mxCell id="Ijlf91uHuPHN8G6T_H1o-55" value="" style="endArrow=none;html=1;rounded=0;entryX=1;entryY=0;entryDx=0;entryDy=0;exitX=0;exitY=0;exitDx=0;exitDy=0;" parent="1" source="Ijlf91uHuPHN8G6T_H1o-44" target="Ijlf91uHuPHN8G6T_H1o-51" edge="1">
          <mxGeometry width="50" height="50" relative="1" as="geometry">
            <mxPoint x="340" y="730" as="sourcePoint" />
            <mxPoint x="390" y="680" as="targetPoint" />
          </mxGeometry>
        </mxCell>
        <mxCell id="Ijlf91uHuPHN8G6T_H1o-56" value="" style="endArrow=none;html=1;rounded=0;entryX=0;entryY=1;entryDx=0;entryDy=0;exitX=1;exitY=1;exitDx=0;exitDy=0;" parent="1" source="Ijlf91uHuPHN8G6T_H1o-53" target="Ijlf91uHuPHN8G6T_H1o-46" edge="1">
          <mxGeometry width="50" height="50" relative="1" as="geometry">
            <mxPoint x="340" y="730" as="sourcePoint" />
            <mxPoint x="390" y="680" as="targetPoint" />
          </mxGeometry>
        </mxCell>
        <mxCell id="Ijlf91uHuPHN8G6T_H1o-57" value="&lt;div&gt;&lt;br&gt;&lt;/div&gt;" style="shape=note;whiteSpace=wrap;html=1;backgroundOutline=1;darkOpacity=0.05;align=left;" parent="1" vertex="1">
          <mxGeometry x="-320" y="1120" width="170" height="170" as="geometry" />
        </mxCell>
        <mxCell id="Ijlf91uHuPHN8G6T_H1o-59" value="all about leader members information&lt;div&gt;&lt;ul&gt;&lt;li&gt;background of experience&lt;/li&gt;&lt;li&gt;awards&lt;/li&gt;&lt;/ul&gt;&lt;/div&gt;" style="text;html=1;align=left;verticalAlign=middle;whiteSpace=wrap;rounded=0;" parent="1" vertex="1">
          <mxGeometry x="-315" y="1153" width="160" height="104" as="geometry" />
        </mxCell>
        <mxCell id="Ijlf91uHuPHN8G6T_H1o-60" value="Leader Details" style="rounded=0;whiteSpace=wrap;html=1;fillColor=#fff2cc;strokeColor=#d6b656;" parent="1" vertex="1">
          <mxGeometry x="-80" y="1090" width="120" height="40" as="geometry" />
        </mxCell>
        <mxCell id="Ijlf91uHuPHN8G6T_H1o-61" value="Header" style="rounded=0;whiteSpace=wrap;html=1;" parent="1" vertex="1">
          <mxGeometry x="-80" y="1130" width="120" height="60" as="geometry" />
        </mxCell>
        <mxCell id="Ijlf91uHuPHN8G6T_H1o-62" value="Section" style="rounded=0;whiteSpace=wrap;html=1;" parent="1" vertex="1">
          <mxGeometry x="-80" y="1190" width="120" height="60" as="geometry" />
        </mxCell>
        <mxCell id="Ijlf91uHuPHN8G6T_H1o-63" value="Footer" style="rounded=0;whiteSpace=wrap;html=1;" parent="1" vertex="1">
          <mxGeometry x="-80" y="1250" width="120" height="60" as="geometry" />
        </mxCell>
        <mxCell id="Ijlf91uHuPHN8G6T_H1o-65" style="edgeStyle=orthogonalEdgeStyle;rounded=0;orthogonalLoop=1;jettySize=auto;html=1;entryX=0;entryY=0;entryDx=170;entryDy=100;entryPerimeter=0;endArrow=none;startFill=0;" parent="1" source="Ijlf91uHuPHN8G6T_H1o-62" target="Ijlf91uHuPHN8G6T_H1o-57" edge="1">
          <mxGeometry relative="1" as="geometry" />
        </mxCell>
        <mxCell id="Ijlf91uHuPHN8G6T_H1o-69" value="Location" style="rounded=0;whiteSpace=wrap;html=1;fillColor=#fff2cc;strokeColor=#d6b656;" parent="1" vertex="1">
          <mxGeometry x="120" y="1360" width="120" height="40" as="geometry" />
        </mxCell>
        <mxCell id="Ijlf91uHuPHN8G6T_H1o-70" value="Header" style="rounded=0;whiteSpace=wrap;html=1;" parent="1" vertex="1">
          <mxGeometry x="120" y="1400" width="120" height="60" as="geometry" />
        </mxCell>
        <mxCell id="Ijlf91uHuPHN8G6T_H1o-71" value="Section" style="rounded=0;whiteSpace=wrap;html=1;" parent="1" vertex="1">
          <mxGeometry x="120" y="1460" width="120" height="60" as="geometry" />
        </mxCell>
        <mxCell id="Ijlf91uHuPHN8G6T_H1o-72" value="Footer" style="rounded=0;whiteSpace=wrap;html=1;" parent="1" vertex="1">
          <mxGeometry x="120" y="1560" width="120" height="60" as="geometry" />
        </mxCell>
        <mxCell id="Ijlf91uHuPHN8G6T_H1o-73" value="..." style="rounded=0;whiteSpace=wrap;html=1;" parent="1" vertex="1">
          <mxGeometry x="120" y="1520" width="120" height="40" as="geometry" />
        </mxCell>
        <mxCell id="Ijlf91uHuPHN8G6T_H1o-104" style="edgeStyle=orthogonalEdgeStyle;rounded=0;orthogonalLoop=1;jettySize=auto;html=1;entryX=0;entryY=0.5;entryDx=0;entryDy=0;exitX=1;exitY=0.25;exitDx=0;exitDy=0;" parent="1" target="Ijlf91uHuPHN8G6T_H1o-96" edge="1">
          <mxGeometry relative="1" as="geometry">
            <mxPoint x="870.0000000000005" y="890" as="sourcePoint" />
          </mxGeometry>
        </mxCell>
        <mxCell id="Ijlf91uHuPHN8G6T_H1o-96" value="Portfolio Detail" style="rounded=0;whiteSpace=wrap;html=1;fillColor=#fff2cc;strokeColor=#d6b656;" parent="1" vertex="1">
          <mxGeometry x="960" y="870" width="120" height="40" as="geometry" />
        </mxCell>
        <mxCell id="Ijlf91uHuPHN8G6T_H1o-97" value="Header" style="rounded=0;whiteSpace=wrap;html=1;" parent="1" vertex="1">
          <mxGeometry x="960" y="910" width="120" height="60" as="geometry" />
        </mxCell>
        <mxCell id="Ijlf91uHuPHN8G6T_H1o-98" value="Section" style="rounded=0;whiteSpace=wrap;html=1;" parent="1" vertex="1">
          <mxGeometry x="960" y="970" width="120" height="60" as="geometry" />
        </mxCell>
        <mxCell id="Ijlf91uHuPHN8G6T_H1o-99" value="Footer" style="rounded=0;whiteSpace=wrap;html=1;" parent="1" vertex="1">
          <mxGeometry x="960" y="1070" width="120" height="60" as="geometry" />
        </mxCell>
        <mxCell id="Ijlf91uHuPHN8G6T_H1o-100" value="..." style="rounded=0;whiteSpace=wrap;html=1;" parent="1" vertex="1">
          <mxGeometry x="960" y="1030" width="120" height="40" as="geometry" />
        </mxCell>
        <mxCell id="Ijlf91uHuPHN8G6T_H1o-102" value="FQA" style="rounded=0;whiteSpace=wrap;html=1;" parent="1" vertex="1">
          <mxGeometry x="400" y="968" width="160" height="60" as="geometry" />
        </mxCell>
        <mxCell id="Ijlf91uHuPHN8G6T_H1o-103" value="Testimonials" style="rounded=0;whiteSpace=wrap;html=1;" parent="1" vertex="1">
          <mxGeometry x="670" y="968" width="200" height="60" as="geometry" />
        </mxCell>
        <mxCell id="Ijlf91uHuPHN8G6T_H1o-105" value="Bento UI" style="rounded=0;whiteSpace=wrap;html=1;" parent="1" vertex="1">
          <mxGeometry x="130" y="130" width="120" height="60" as="geometry" />
        </mxCell>
        <mxCell id="Ijlf91uHuPHN8G6T_H1o-106" value="Why Choose Us" style="rounded=0;whiteSpace=wrap;html=1;" parent="1" vertex="1">
          <mxGeometry x="130" y="310" width="120" height="60" as="geometry" />
        </mxCell>
        <mxCell id="Ijlf91uHuPHN8G6T_H1o-107" value="Company Features" style="rounded=0;whiteSpace=wrap;html=1;" parent="1" vertex="1">
          <mxGeometry x="130" y="190" width="120" height="60" as="geometry" />
        </mxCell>
        <mxCell id="Ijlf91uHuPHN8G6T_H1o-108" value="Company Results" style="rounded=0;whiteSpace=wrap;html=1;" parent="1" vertex="1">
          <mxGeometry x="130" y="250" width="120" height="60" as="geometry" />
        </mxCell>
        <mxCell id="Ijlf91uHuPHN8G6T_H1o-110" value="" style="endArrow=none;html=1;rounded=0;entryX=0;entryY=1;entryDx=0;entryDy=0;exitX=1;exitY=1;exitDx=0;exitDy=0;" parent="1" source="Ijlf91uHuPHN8G6T_H1o-106" target="Ijlf91uHuPHN8G6T_H1o-6" edge="1">
          <mxGeometry width="50" height="50" relative="1" as="geometry">
            <mxPoint x="200" y="350" as="sourcePoint" />
            <mxPoint x="250" y="300" as="targetPoint" />
          </mxGeometry>
        </mxCell>
        <mxCell id="Ijlf91uHuPHN8G6T_H1o-111" value="" style="endArrow=none;html=1;rounded=0;entryX=0;entryY=0;entryDx=0;entryDy=0;exitX=1;exitY=0;exitDx=0;exitDy=0;" parent="1" source="Ijlf91uHuPHN8G6T_H1o-107" target="Ijlf91uHuPHN8G6T_H1o-4" edge="1">
          <mxGeometry width="50" height="50" relative="1" as="geometry">
            <mxPoint x="200" y="350" as="sourcePoint" />
            <mxPoint x="250" y="300" as="targetPoint" />
          </mxGeometry>
        </mxCell>
      </root>
    </mxGraphModel>
  </diagram>
</mxfile>
